# xmcd
#
# Track frame offsets: 
#        150
#        20000
#        32967
#        42270
#        61025
#        73032
#        92042
#        107377
#        121460
#        134310
#        147172
#        161182
#        175687
#        189940
#
# Disc length: 2766 seconds
#
# Revision: 0
# Processed by: cddbd v1.5.2PL0 Copyright (c) Steve Scherf et al.
# Submitted via: ExactAudioCopy v0.95b4
#
DISCID=bd0acc0e
DTITLE=Forest Combs - Satisfied Mind
DYEAR=2003
DGENRE=Gospel
TTITLE0=Don't Tell Momma
TTITLE1=Teardrops
TTITLE2=Crossroads
TTITLE3=Eastern Gate
TTITLE4=Satisfied
TTITLE5=Old Ship Of Zion
TTITLE6=Way Below The Bottom
TTITLE7=Peace In The Valley
TTITLE8=Tears Will Never Stain
TTITLE9=Mansion In The Sky
TTITLE10=Where No One Stands Alone
TTITLE11=Satisfied Mind
TTITLE12=Stroll Over Heaven With You
TTITLE13=The Old Violin
EXTD=
EXTT0=
EXTT1=
EXTT2=
EXTT3=
EXTT4=
EXTT5=
EXTT6=
EXTT7=
EXTT8=
EXTT9=
EXTT10=
EXTT11=
EXTT12=
EXTT13=
PLAYORDER=
